# xmcd
# Track frame offsets:
# 150
# 8885
# 33006
# 60157
# 87708
# 102257
# 117147
# 133624
# 155539
# 179899
# 197608
# 219885
# 237987
# 251274
# 266849
# 294630
# 315991
# 327449
#
# Disc length: 4605 seconds
# Revision: 1
# Processed by: cddbd v1.5.2PL0 Copyright (c) Steve Scherf et al.
# Submitted via: VisiTrax 2.10.3.257 - For more info visit www.synapsa.com
#
DISCID=f911fb12
DTITLE=Showbiz Blues - Showbiz Blues
DYEAR=2006
DGENRE=Blues
TTITLE0=Hot n Nasty - Crossing The Dessert
TTITLE1=Timo Gross - Trouble
TTITLE2=Second Line - Riding On The L&N
TTITLE3=Zydeco Playboys - Voodoo In Bayon
TTITLE4=Dominik Clayton - She's Mine
TTITLE5=Soulmatic - Out Of Your Time
TTITLE6=Blues Blend - Something Ain't Right
TTITLE7=Big Daddy Wilson and Doc Fozz - Crazy World
TTITLE8=Larry O Moan - I Wanna Drink A River
TTITLE9=Triplex - Steel My Kisses
TTITLE10=Top Dog Brass Band - Who's Gonna Help Brother Get Further
TTITLE11=German's Classic Blues Trio - Come On Down
TTITLE12=Groove and Snoop Quintett - Hope Your 're Lucky
TTITLE13=Memo Gonzales and The Bluescasters - I Wanna Ask You Pretty Baby
TTITLE14=B.B. and The Blues Shacks - Ordinary Blues
TTITLE15=Abi Wallenstein - Decoration Blues
TTITLE16=Dr. Will - You Got Me Runnin
TTITLE17=Fernando Jones - I Want To Spent X-Mas With You
EXTD=
EXTT0=
EXTT1=
EXTT2=
EXTT3=
EXTT4=
EXTT5=
EXTT6=
EXTT7=
EXTT8=
EXTT9=
EXTT10=
EXTT11=
EXTT12=
EXTT13=
EXTT14=
EXTT15=
EXTT16=
EXTT17=
PLAYORDER=
